# xmcd CD database file
#
# Track frame offsets:
#	150
#	9954
#	20058
#	36135
#	48499
#	61079
#	74324
#	88029
#	101895
#	113131
#	126269
#	143222
#	157439
#	168451
#	180655
#	199215
#	202578
#	213577
#	224380
#
# Disc length: 3176 seconds
#
# Revision: 0
# Processed by: cddbd v1.5.2PL0 Copyright (c) Steve Scherf et al.
# Submitted via: CDex 1.51
#
DISCID=1b0c6613
DTITLE=Frank Sinatra - Live In Tokyo Japan 1962
DYEAR=1962
DGENRE=Jazz
TTITLE0=Too Marvelous For Words
TTITLE1=Imagination
TTITLE2=Moonlight In Vermont
TTITLE3=Day In Day Out
TTITLE4=Without A Song
TTITLE5=The Moon Was Yellow, And The Night Was Young
TTITLE6=I've Got You Under My Skin
TTITLE7=I Get A Kick Out Of You
TTITLE8=At Long Last Love
TTITLE9=My Funny Valentine
TTITLE10=In The Still Of The Night
TTITLE11=Embraceable You
TTITLE12=Night and Day
TTITLE13=April In Paris
TTITLE14=The Lady Is A Tramp
TTITLE15=Monologue
TTITLE16=All The Way
TTITLE17=Chicago
TTITLE18=I Could Have Danced All Night
EXTD=YEAR: 1962
EXTT0=
EXTT1=
EXTT2=
EXTT3=
EXTT4=
EXTT5=
EXTT6=
EXTT7=
EXTT8=
EXTT9=
EXTT10=
EXTT11=
EXTT12=
EXTT13=
EXTT14=
EXTT15=
EXTT16=
EXTT17=
EXTT18=
PLAYORDER=
